<?xml version="1.0" encoding="utf-8"?>
<!-- Generator: Adobe Illustrator 21.0.0, SVG Export Plug-In . SVG Version: 6.00 Build 0)  -->
<svg version="1.1" id="Layer_1" xmlns="http://www.w3.org/2000/svg" xmlns:xlink="http://www.w3.org/1999/xlink" x="0px" y="0px"
	 viewBox="0 0 180 193.4" style="enable-background:new 0 0 180 193.4;" xml:space="preserve">
  <style type="text/css">
    .st0{fill:#9E1C11;}
    .st1{fill:#1D0101;}
  </style>
  <g>
    <circle class="st0" cx="90" cy="104" r="85"/>
    <path class="st1" d="M133.3,25.1c0-0.4,0.1-0.8,0.1-1.2c0.4-3.6-2.9-9.9-5.4-14.4c-1.6-2.9-5-4.3-8.1-4l-8.6,1.1
      c-2-0.9-6.8-3.4-10.6-5.2c-2.9-1.3-6.3-1.1-9,0.9c-2.9,2.5-7.2,5.6-11,8.8c-0.9,0.7-1.7,1.4-2.5,2.2c-0.3,0.4-0.8,1-1.4,1.6
      c-13.2,1.9-25.5,6.8-36.2,13.8c-6.8-1.2-14.6-0.7-14.6,3.7c0,1.6,0.7,3.5,2.5,5.2c0.1,0.1,0.2,0.2,0.4,0.3C11.1,54.4,0,77.9,0,104
      c0,49.6,40.4,90,90,90s90-40.4,90-90C180,70,161.1,40.4,133.3,25.1z M61.2,60.6l4.5-1.8c0.2,0.2,0,0,0.2,0.2
      c-0.9,2.5-2.2,4.7-3.8,6.8c-1.8,2.7-3.4,7.2,0.2,4c0.5-0.2,1.3,0.5,1.3,1.1v0.2c-1.6,3.8-2.2,8.3-2.9,12.2c0,0.5-0.7,0.7-0.9,0.2
      c-1.6-1.8-3.6-4.9-4-7.4c-0.2-1.3-0.5-2.7-0.7-4c0-0.9,0-1.6,0-2.5l0.2-2c1.1-8.8,7-10.8,7-10.8s0.2,1.1-1.6,3.2
      C60.7,60.4,61,60.6,61.2,60.6z M72.6,61c0,0.2,0,0.2,0,0.5l3.8,4.5c0.2,0.2,0.5,0.2,0.7,0l2.9-1.8c0,0,0,0,0.2,0l3.2,4.5
      c0,0,0,0,0,0.2l-2.7,2.2c-0.2,0.2-0.2,0.2-0.2,0.5c0,0.2,0.9,3.2,9.2,5.6c7,2.2,12.6-1.1,14.6-2.5h0.2c0.7,3.2,3.2,14,3.2,19.3
      c0,1.1-0.2,1.8-0.9,2c-2.2,1.1-7.7-1.3-9.5-2.5h-0.2h-5c-0.2,0-0.2,0-0.5,0.2c0,0.2,0,0.2,0,0.5l1.6,2.5V97c-6.1-0.4-11.5,0-11.7,0
      c-1.8,0.2-3.8,2.2-5.4,4.1c-1.1,1.3-3.2,1.1-4.1-0.5c-1.8-4-4.3-10.4-4.3-15.1c0-7.7,4-23.8,4.3-24.8C72.2,61,72.4,61,72.6,61z
      M97.6,114.4c-0.9-0.2-1.8-0.7-2.7-0.9c-1.6-0.5-3.4-1.1-5.2-1.4c-0.2,0-0.7-0.2-0.9-0.2c-0.2,0-0.5,0-0.5,0c-0.5,0-0.9,0-1.1,0H87
      c-1.1,0-2.5,0-3.4-0.5c-0.5-0.2-0.9-0.7-0.9-1.1c0-0.2,0-0.5,0-0.7s0-0.2,0-0.5c0-0.2,0-0.2,0-0.5c0.5-1.6,1.4-3.4,2.9-3.8
      c0.5-0.2,0.9-0.2,1.4-0.2c1.6,0,3.4,0.9,5,2c0.9,0.5,1.6,0.9,2.2,1.3c2,0.9,4,1.1,6.1,1.6c0.7,0,1.4,0.2,2,0.2h0.2
      c1.1,0.2,2.2,0.5,2.9,1.1c0.4,0.5,0.7,0.9,0.7,1.4c0,0.7-0.5,1.3-1.4,2.2C103.7,115,99.6,114.8,97.6,114.4z M79.8,127.2
      c7,6.5,13.3,6.5,16,6.3c0,0,0.2,0,0,0.2c-5.6,9.5-7.9,32.6-8.3,38c0,0,0,0.2-0.2,0c-0.4-0.5-1.8-1.6-2-1.8
      c-4.3-32.9-12.2-38.5-17.1-41.6c-0.7-0.5-1.3-0.9-1.8-1.4c-4-3.4-9.5-21.4-9.2-26.3c0-0.7,0.2-1.6,0.2-2.5c0-0.2,0-0.2,0-0.5
      c0-0.2,0-0.2,0-0.4c0-0.5,0.2-1.1,0.2-1.6l0.7-2.9c0.2-0.7,1.1-0.7,1.1,0c0.2,2,0.7,4,1.1,5.8c0,0.2,0,0.5,0.2,0.7
      c0,0.2,0,0.5,0.2,0.7C64.5,114.4,72.4,122.5,79.8,127.2z M155.5,151.3c-7.9-8.1-31.7-23.6-50-32v-0.2c0.5-0.9,0.9-1.6,1.3-2
      l0.2-0.2c0.7-0.9,1.3-2,2.2-3.6c0.4-0.5,5.4-5,6.3-9.7c0.2-1.3,0.5-2.9,0.5-4.5c0.2-4,0.7-8.1,3.4-11.5c1.3-1.8,2.5-4,3.6-6.3
      c2-4.3,3.8-8.3,7.2-7.9c0.2,0,0.5-0.2,0.5-0.5c4.3,0.5,9,0.7,13.7,1.1c8.8,0.5,16.4-1.2,20.7-4.5c0.5-0.4,1.2-1,1.9-1.6
      c5.1,10.9,8,23.1,8,36c0,18.9-6.2,36.3-16.6,50.4C157.3,153.2,156.1,151.9,155.5,151.3z M165,64c-1,0.2-1.8,0.3-2.4,0.4
      c-14.8,3.2-32.8,1.6-32.8,1.6l0.2-1.1h0.5c0.7,0,1.1-0.5,1.1-1.1l0.2-1.1c0.2-0.9-0.2-1.8-1.1-2c0-1.4,1.1-18,2-28.6
      c0-0.4,0.1-0.9,0.1-1.4C146.4,38.5,157.6,50.1,165,64z M71.1,21.9c-2.4,3.1-4.1,6.5-5.6,10.1l-2.7,6.5c0,0,0,0-0.2,0
      c-2.3-2.3-9.5-5.9-15.3-8c7.5-4.4,15.8-7.7,24.6-9.6C71.5,21.3,71.3,21.6,71.1,21.9z M32.7,41.2c3.2,2.5,7.1,5.4,9.1,6.4
      c3.4,2,7.2,3.8,11,5.6l4,1.4c-0.9,0.5-2.2,0.7-3.4,1.1c-0.5,0.2-0.5,0.7,0,0.9l1.6,0.7c-0.5,3.1-4.3,6.8-4.3,6.8s0,0.2,0.2,0.2
      c2.2-0.7,4-1.6,4-1.6s-0.7,2.2-3.4,6.5c-0.2,0.2,0,0.5,0.2,0.5l1.3-0.2c0,0,0,1.1-1.6,4c-0.2,0.5,0.2,0.9,0.7,0.5l1.6-1.1
      c0,0-0.5,2.2-2.2,4.7c-0.2,0.2,0,0.7,0.5,0.7c0.7-0.5,1.6-0.7,1.6-0.7s-0.9,4.9-3.8,7.2c-0.2,0.2,0,0.7,0.2,0.7l4.1-0.5v0.5
      c0,0-0.5,3.4-5,5.2l4.7,2l-1.8,2.7c0,0.2,0,0.2,0,0.5s0.2,0.2,0.5,0.2l4,1.1c-1.8,0-6.8,0-9.7,2.5c-0.9,0.7-2,1.8-3.4,2.9
      c-3.4,2.9-8.1,7-10.1,7c-3.2,0-11.9,2.2-14,3.6c-1.1,0.7-6.2,1.7-10.1,3.6c-0.7,0.3-2,0.9-3.2,1.4C5.4,113.5,5,108.8,5,104
      C5,79.1,15.7,56.7,32.7,41.2z"/>
  </g>
</svg>
